<svg width="56" height="51" viewBox="0 0 56 51" fill="none" xmlns="http://www.w3.org/2000/svg">
<path d="M11.8243 46.7237L14.7852 46.4734C18.8885 46.1269 22.7146 49.2135 26.5216 48.8917C30.6809 48.5459 41.764 41.6789 53.2731 34.8412C54.0199 34.3979 54.2936 33.4604 53.839 32.7427C51.4949 29.0372 47.7902 27.9086 44.7573 29.2069L34.8483 33.5944C33.8448 31.9282 32.3253 30.1924 29.4091 30.6689L20.7507 32.1622C17.7437 32.3962 15.6385 29.9051 12.7128 30.1521L10.7881 30.3793" stroke="#252B33" stroke-width="3.5"/>
<path d="M35.5101 33.6013C32.5728 34.868 25.7708 38.668 22.9882 38.668" stroke="#252B33" stroke-width="3.5" stroke-linecap="round"/>
<path d="M10.3376 28.9298V47.9062H2.70703V28.9298H10.3376Z" stroke="#252B33" stroke-width="3.5"/>
<path d="M25.3675 7.86243V1.75H31.3079V7.86243C30.8674 7.73835 30.3985 7.75126 29.964 7.90116L28.3377 8.46223L26.7114 7.90116L26.1695 9.47176L26.7114 7.90116C26.2769 7.75126 25.8079 7.73835 25.3675 7.86243Z" stroke="#F47342" stroke-width="3.5" stroke-linejoin="round"/>
<rect x="15.9254" y="1.75" width="24.8212" height="22.2836" rx="3.25" stroke="url(#paint0_linear_3_4576)" stroke-width="3.5"/>
<defs>
<linearGradient id="paint0_linear_3_4576" x1="28.336" y1="0" x2="28.336" y2="25.7836" gradientUnits="userSpaceOnUse">
<stop stop-color="#F0745E"/>
<stop offset="1" stop-color="#FF330F"/>
</linearGradient>
</defs>
</svg>
