<svg width="35" height="40" viewBox="0 0 35 40" fill="none" xmlns="http://www.w3.org/2000/svg">
<path fill-rule="evenodd" clip-rule="evenodd" d="M0.690203 0.863784C0.251914 1.33484 0 2.05986 0 3.00198V36.5127C0 37.4548 0.251914 38.1798 0.706588 38.6345L0.825377 38.7348L19.6022 19.958V19.5361L0.808992 0.763428L0.690203 0.863784Z" fill="url(#paint0_linear_3_4559)"/>
<path fill-rule="evenodd" clip-rule="evenodd" d="M25.8488 26.2412L19.5858 19.9761V19.5378L25.8509 13.2727L25.9861 13.3567L33.396 17.5675C35.5178 18.7636 35.5178 20.7339 33.396 21.9463L25.9861 26.1572C25.984 26.1572 25.8488 26.2412 25.8488 26.2412Z" fill="url(#paint1_linear_3_4559)"/>
<path fill-rule="evenodd" clip-rule="evenodd" d="M25.984 26.1576L19.5858 19.7573L0.690186 38.6529C1.38039 39.3943 2.54165 39.4783 3.84013 38.7533L25.984 26.1576Z" fill="url(#paint2_linear_3_4559)"/>
<path fill-rule="evenodd" clip-rule="evenodd" d="M25.984 13.3592L3.84013 0.7799C2.5437 0.0384944 1.38039 0.13885 0.690186 0.880256L19.5837 19.7574L25.984 13.3592Z" fill="url(#paint3_linear_3_4559)"/>
<path opacity="0.2" fill-rule="evenodd" clip-rule="evenodd" d="M25.8488 26.0222L3.85655 38.5176C2.6277 39.2241 1.53198 39.175 0.825393 38.5339L0.706604 38.6527L0.825393 38.7531C1.53198 39.3921 2.6277 39.4433 3.85655 38.7367L26.0004 26.1574L25.8488 26.0222Z" fill="#252B33"/>
<path opacity="0.12" fill-rule="evenodd" clip-rule="evenodd" d="M33.394 21.7276L25.8325 26.0224L25.9676 26.1576L33.3776 21.9467C34.4385 21.3405 34.9608 20.5499 34.9608 19.7573C34.8932 20.4823 34.3545 21.1725 33.394 21.7276Z" fill="#252B33"/>
<path opacity="0.25" fill-rule="evenodd" clip-rule="evenodd" d="M3.84015 0.998668L33.394 17.7888C34.3545 18.3275 34.8932 19.0341 34.9771 19.7591C34.9771 18.9685 34.4549 18.1759 33.394 17.5697L3.84015 0.779524C1.71834 -0.43294 0 0.576764 0 3.00169V3.22084C0 0.795908 1.71834 -0.197411 3.84015 0.998668Z" fill="white"/>
<defs>
<linearGradient id="paint0_linear_3_4559" x1="17.9161" y1="2.64177" x2="-12.1611" y2="10.6559" gradientUnits="userSpaceOnUse">
<stop stop-color="#00A0FF"/>
<stop offset="0.007" stop-color="#00A1FF"/>
<stop offset="0.26" stop-color="#00BEFF"/>
<stop offset="0.512" stop-color="#00D2FF"/>
<stop offset="0.76" stop-color="#00DFFF"/>
<stop offset="1" stop-color="#00E3FF"/>
</linearGradient>
<linearGradient id="paint1_linear_3_4559" x1="36.1571" y1="19.7579" x2="-0.515668" y2="19.7579" gradientUnits="userSpaceOnUse">
<stop stop-color="#FFE000"/>
<stop offset="0.409" stop-color="#FFBD00"/>
<stop offset="0.775" stop-color="#FFA500"/>
<stop offset="1" stop-color="#FF9C00"/>
</linearGradient>
<linearGradient id="paint2_linear_3_4559" x1="22.5048" y1="23.2391" x2="-1.64126" y2="63.8785" gradientUnits="userSpaceOnUse">
<stop stop-color="#FF3A44"/>
<stop offset="1" stop-color="#C31162"/>
</linearGradient>
<linearGradient id="paint3_linear_3_4559" x1="-4.0663" y1="-10.2834" x2="6.706" y2="7.86681" gradientUnits="userSpaceOnUse">
<stop stop-color="#32A071"/>
<stop offset="0.069" stop-color="#2DA771"/>
<stop offset="0.476" stop-color="#15CF74"/>
<stop offset="0.801" stop-color="#06E775"/>
<stop offset="1" stop-color="#00F076"/>
</linearGradient>
</defs>
</svg>
