<svg width="40" height="54" viewBox="0 0 40 54" fill="none" xmlns="http://www.w3.org/2000/svg">
<path d="M15.6591 41.7657C10.2852 42.4339 6.44662 45.1409 6.44662 47.2113C6.44662 49.8561 12.7098 52 20.4359 52C28.162 52 34.4252 49.8561 34.4252 47.2113C34.4252 44.9695 29.9248 42.1441 23.8479 41.6227" stroke="#252B33" stroke-width="3.5"/>
<path d="M5.72277 28.4863C4.415 26.8119 3.43309 24.901 2.86425 22.8351C2.49753 21.5032 2.30249 20.1069 2.30249 18.6681C2.30249 9.46254 10.2858 2 20.1337 2C29.9816 2 37.9649 9.46254 37.9649 18.6681C37.9649 20.1069 37.7699 21.5032 37.4032 22.8351C36.8343 24.901 35.8524 26.8119 34.5446 28.4863" stroke="#252B33" stroke-width="3.5"/>
<path d="M3.24023 23.7872C6.05568 31.0496 20.1329 47.2831 20.1329 47.2831C20.1329 47.2831 34.6794 30.1952 37.0256 23.7872" stroke="#252B33" stroke-width="3.5" stroke-linecap="round" stroke-linejoin="round"/>
<path d="M26.4582 17.0943C26.4582 20.145 23.6884 22.8915 19.9183 22.8915C16.1482 22.8915 13.3784 20.145 13.3784 17.0943C13.3784 14.0436 16.1482 11.2971 19.9183 11.2971C23.6884 11.2971 26.4582 14.0436 26.4582 17.0943Z" stroke="url(#paint0_linear_3_4598)" stroke-width="3.5"/>
<defs>
<linearGradient id="paint0_linear_3_4598" x1="19.9183" y1="9.54712" x2="19.9183" y2="24.6415" gradientUnits="userSpaceOnUse">
<stop stop-color="#F0745E"/>
<stop offset="1" stop-color="#FF330F"/>
</linearGradient>
</defs>
</svg>
