<svg width="145" height="37" viewBox="0 0 145 37" fill="none" xmlns="http://www.w3.org/2000/svg">
<path d="M5.20674 33.8452C5.20674 34.4685 5.08114 35.0132 4.82996 35.4793C4.57885 35.9395 4.20799 36.2978 3.71731 36.5541C3.23255 36.8046 2.64847 36.9299 1.96515 36.9299H0.00265503V30.7692H1.96515C2.64847 30.7692 3.23255 30.8945 3.71731 31.145C4.20799 31.3897 4.57885 31.745 4.82996 32.2111C5.08114 32.6713 5.20674 33.216 5.20674 33.8452ZM1.90379 36.2133C2.70983 36.2133 3.32602 36.0065 3.75239 35.5929C4.17875 35.1793 4.3919 34.5967 4.3919 33.8452C4.3919 33.0937 4.17875 32.5111 3.75239 32.0975C3.33187 31.678 2.71567 31.4683 1.90379 31.4683H0.799951V36.2133H1.90379Z" fill="#252B33"/>
<path d="M10.3213 31.4159V33.5219H12.6693V34.1336H10.3213V36.2832H12.9321V36.9299H9.52411V30.7692H12.9321V31.4159H10.3213Z" fill="#252B33"/>
<path d="M17.9947 36.3095H20.185V36.9299H17.1974V30.7692H17.9947V36.3095Z" fill="#252B33"/>
<path d="M25.035 30.7692V36.9299H24.2378V30.7692H25.035Z" fill="#252B33"/>
<path d="M29.9613 30.7692L31.8449 36.0473L33.7548 30.7692H34.6222L32.3531 36.9299H31.3456L29.0852 30.7692H29.9613Z" fill="#252B33"/>
<path d="M39.4666 31.4159V33.5219H41.8142V34.1336H39.4666V36.2832H42.0769V36.9299H38.6688V30.7692H42.0769V31.4159H39.4666Z" fill="#252B33"/>
<path d="M49.6191 36.9299L48.0072 34.4132H47.1398V36.9299H46.3427V30.7692H48.375C49.0759 30.7692 49.6014 30.9382 49.9522 31.2761C50.3022 31.6082 50.4776 32.0508 50.4776 32.6043C50.4776 33.1053 50.3377 33.5102 50.0573 33.819C49.7768 34.1219 49.3705 34.3112 48.8391 34.3869L50.5213 36.9299H49.6191ZM47.1398 33.8364H48.3047C49.2099 33.8364 49.6628 33.4403 49.6628 32.648C49.6628 31.8557 49.2099 31.4596 48.3047 31.4596H47.1398V33.8364Z" fill="#252B33"/>
<path d="M59.0812 30.7692L57.057 34.5967V36.9299H56.2511V34.5967L54.2188 30.7692H55.1476L56.6633 33.7491L58.1701 30.7692H59.0812Z" fill="#252B33"/>
<path d="M71.3622 30.6905C71.935 30.6905 72.4487 30.8245 72.9046 31.0924C73.3656 31.3605 73.7283 31.7362 73.991 32.2197C74.2537 32.6974 74.3847 33.2392 74.3847 33.8451C74.3847 34.451 74.2537 34.9956 73.991 35.4792C73.7283 35.9569 73.3656 36.3297 72.9046 36.5977C72.4487 36.8657 71.935 36.9997 71.3622 36.9997C70.7901 36.9997 70.2706 36.8657 69.8028 36.5977C69.3418 36.3297 68.9799 35.9569 68.7164 35.4792C68.4537 34.9956 68.3227 34.451 68.3227 33.8451C68.3227 33.2392 68.4537 32.6974 68.7164 32.2197C68.9799 31.7362 69.3418 31.3605 69.8028 31.0924C70.2706 30.8245 70.7901 30.6905 71.3622 30.6905ZM71.3622 31.4333C70.9359 31.4333 70.5533 31.5323 70.2151 31.7304C69.882 31.9226 69.6193 32.2023 69.4261 32.5692C69.2396 32.9304 69.1456 33.3558 69.1456 33.8451C69.1456 34.3286 69.2396 34.7539 69.4261 35.1209C69.6193 35.488 69.882 35.7705 70.2151 35.9685C70.5533 36.1608 70.9359 36.2569 71.3622 36.2569C71.7833 36.2569 72.16 36.1579 72.4923 35.9598C72.8313 35.7617 73.094 35.4821 73.2813 35.1209C73.4737 34.7539 73.5699 34.3286 73.5699 33.8451C73.5699 33.3558 73.4737 32.9304 73.2813 32.5692C73.094 32.2023 72.8313 31.9226 72.4923 31.7304C72.16 31.5323 71.7833 31.4333 71.3622 31.4333Z" fill="#252B33"/>
<path d="M83.5056 36.9299H82.7078L79.5018 32.0625V36.9299H78.7047V30.7692H79.5018L82.7078 35.6453V30.7692H83.5056V36.9299Z" fill="#252B33"/>
<path d="M98.639 33.8452C98.639 34.4685 98.5139 35.0132 98.2622 35.4793C98.0114 35.9395 97.6406 36.2978 97.1499 36.5541C96.6651 36.8046 96.0812 36.9299 95.3974 36.9299H93.4354V30.7692H95.3974C96.0812 30.7692 96.6651 30.8945 97.1499 31.145C97.6406 31.3897 98.0114 31.745 98.2622 32.2111C98.5139 32.6713 98.639 33.216 98.639 33.8452ZM95.3359 36.2133C96.1419 36.2133 96.7584 36.0065 97.1847 35.5929C97.611 35.1793 97.8241 34.5967 97.8241 33.8452C97.8241 33.0937 97.611 32.5111 97.1847 32.0975C96.7643 31.678 96.1478 31.4683 95.3359 31.4683H94.2325V36.2133H95.3359Z" fill="#252B33"/>
<path d="M103.754 31.4159V33.5219H106.102V34.1336H103.754V36.2832H106.365V36.9299H102.957V30.7692H106.365V31.4159H103.754Z" fill="#252B33"/>
<path d="M116.815 30.874V36.9298H116.018V32.0974L114.082 36.9298H113.372L111.427 32.1149V36.9298H110.63V30.874H111.585L113.74 35.9598L115.86 30.874H116.815Z" fill="#252B33"/>
<path d="M124.951 35.5054H122.234L121.717 36.9298H120.859L123.146 30.8828H124.048L126.326 36.9298H125.467L124.951 35.5054ZM124.723 34.885L123.593 31.7741L122.462 34.885H124.723Z" fill="#252B33"/>
<path d="M135.175 36.9299H134.378L131.172 32.0625V36.9299H130.374V30.7692H131.172L134.378 35.6453V30.7692H135.175V36.9299Z" fill="#252B33"/>
<path d="M144.903 33.8452C144.903 34.4685 144.778 35.0132 144.526 35.4793C144.275 35.9395 143.904 36.2978 143.414 36.5541C142.929 36.8046 142.345 36.9299 141.661 36.9299H139.699V30.7692H141.661C142.345 30.7692 142.929 30.8945 143.414 31.145C143.904 31.3897 144.275 31.745 144.526 32.2111C144.778 32.6713 144.903 33.216 144.903 33.8452ZM141.6 36.2133C142.406 36.2133 143.022 36.0065 143.448 35.5929C143.875 35.1793 144.088 34.5967 144.088 33.8452C144.088 33.0937 143.875 32.5111 143.448 32.0975C143.028 31.678 142.412 31.4683 141.6 31.4683H140.496V36.2133H141.6Z" fill="#252B33"/>
<path d="M0 21.8309V0.352783H8.78715C10.3755 0.352783 11.871 0.639158 13.2736 1.21191C14.6762 1.7642 15.8829 2.52105 16.8936 3.48245C17.925 4.44385 18.7398 5.58935 19.3379 6.91895C19.9362 8.22809 20.2352 9.63951 20.2352 11.1532C20.2352 12.626 19.9362 14.0169 19.3379 15.3261C18.7398 16.6352 17.925 17.7705 16.8936 18.7319C15.8829 19.6933 14.6762 20.4502 13.2736 21.0024C11.871 21.5547 10.3755 21.8309 8.78715 21.8309H0ZM8.66341 5.0166H5.32183V17.1671H8.66341C9.50911 17.1671 10.3033 17.0136 11.0458 16.7068C11.7884 16.4 12.4279 15.9807 12.9641 15.4488C13.5211 14.8965 13.9543 14.2522 14.2637 13.5158C14.5731 12.7794 14.7278 11.9919 14.7278 11.1532C14.7278 10.2941 14.5731 9.49629 14.2637 8.75991C13.9543 8.00307 13.5211 7.34851 12.9641 6.79621C12.4279 6.24392 11.7884 5.81436 11.0458 5.50753C10.3033 5.18025 9.50911 5.0166 8.66341 5.0166Z" fill="#F47342"/>
<path d="M23.0545 21.8308V0.352661H40.1341V4.92443H28.3763V8.79049H40.2089V13.2088H28.3763V17.259H40.2577V21.8308H23.0545Z" fill="#F47342"/>
<path d="M73.4049 10.8232C73.4049 12.2549 73.1251 13.6101 72.5663 14.8891C72.0068 16.1488 71.246 17.2464 70.2824 18.1818C69.3181 19.098 68.1717 19.8234 66.8418 20.3578C65.5118 20.8923 64.0953 21.1595 62.5914 21.1595C61.0883 21.1595 59.6718 20.8923 58.3418 20.3578C57.0119 19.8234 55.8647 19.098 54.9012 18.1818C53.9376 17.2464 53.176 16.1488 52.6172 14.8891C52.0577 13.6101 51.7787 12.2549 51.7787 10.8232C51.7787 9.39157 52.0577 8.04589 52.6172 6.78603C53.176 5.50711 53.9376 4.40954 54.9012 3.49329C55.8647 2.55797 57.0119 1.82306 58.3418 1.28859C59.6718 0.754114 61.0883 0.486877 62.5914 0.486877C64.0953 0.486877 65.5118 0.754114 66.8418 1.28859C68.1717 1.82306 69.3181 2.55797 70.2824 3.49329C71.246 4.40954 72.0068 5.50711 72.5663 6.78603C73.1251 8.04589 73.4049 9.39157 73.4049 10.8232ZM68.2871 10.8232C68.2871 10.0024 68.1428 9.2389 67.8535 8.53263C67.5641 7.80724 67.16 7.18688 66.639 6.6715C66.1379 6.15612 65.5407 5.75526 64.8465 5.46894C64.153 5.16352 63.4011 5.01082 62.5914 5.01082C61.7818 5.01082 61.0306 5.16352 60.3364 5.46894C59.6429 5.75526 59.0353 6.15612 58.515 6.6715C58.014 7.18688 57.6188 7.80724 57.3294 8.53263C57.0407 9.2389 56.8957 10.0024 56.8957 10.8232C56.8957 11.644 57.0407 12.4171 57.3294 13.1425C57.6188 13.8487 58.014 14.4596 58.515 14.975C59.0353 15.4903 59.6429 15.9007 60.3364 16.2062C61.0306 16.4924 61.7818 16.6356 62.5914 16.6356C63.4011 16.6356 64.153 16.4924 64.8465 16.2062C65.5407 15.9007 66.1379 15.4903 66.639 14.975C67.16 14.4596 67.5641 13.8487 67.8535 13.1425C68.1428 12.4171 68.2871 11.644 68.2871 10.8232Z" fill="#F47342"/>
<path d="M76.0485 0.801819H80.7325L89.9266 12.4266V0.801819H94.6099V20.8446H90.2153L80.7325 8.76166V20.8446H76.0485V0.801819Z" fill="#F47342"/>
<path d="M106.101 21.1595V0.486877H114.569C116.101 0.486877 117.542 0.762512 118.894 1.31378C120.246 1.84536 121.409 2.57383 122.383 3.49918C123.376 4.42453 124.162 5.52707 124.738 6.80681C125.315 8.06685 125.603 9.42536 125.603 10.8823C125.603 12.2998 125.315 13.6387 124.738 14.8987C124.162 16.1587 123.376 17.2514 122.383 18.1767C121.409 19.1022 120.246 19.8306 118.894 20.3622C117.542 20.8938 116.101 21.1595 114.569 21.1595H106.101ZM114.45 4.9758H111.23V16.6706H114.45C115.266 16.6706 116.031 16.5229 116.747 16.2276C117.462 15.9323 118.079 15.5287 118.595 15.0168C119.132 14.4852 119.549 13.8651 119.848 13.1562C120.146 12.4475 120.295 11.6895 120.295 10.8823C120.295 10.0554 120.146 9.28756 119.848 8.57874C119.549 7.85027 119.132 7.22026 118.595 6.68868C118.079 6.15709 117.462 5.74364 116.747 5.44832C116.031 5.13331 115.266 4.9758 114.45 4.9758Z" fill="#F47342"/>
<path d="M128.32 21.1595V0.486877H144.781V4.88721H133.45V8.60827H144.73V12.8609H133.45V16.7592H144.9V21.1595H128.32Z" fill="#F47342"/>
<path d="M47.5765 10.6889C47.5765 11.5786 46.8482 12.2998 45.9505 12.2998C45.052 12.2998 44.3238 11.5786 44.3238 10.6889C44.3238 9.79928 45.052 9.07806 45.9505 9.07806C46.8482 9.07806 47.5765 9.79928 47.5765 10.6889Z" fill="#F47342"/>
<path d="M101.931 10.6889C101.931 11.5786 101.203 12.2998 100.304 12.2998C99.4057 12.2998 98.6775 11.5786 98.6775 10.6889C98.6775 9.79928 99.4057 9.07806 100.304 9.07806C101.203 9.07806 101.931 9.79928 101.931 10.6889Z" fill="#F47342"/>
</svg>
