<svg width="70" height="70" viewBox="0 0 70 70" fill="none" xmlns="http://www.w3.org/2000/svg">
<circle cx="35" cy="35" r="35" fill="url(#paint0_linear_3_4420)"/>
<path d="M32.3986 28.6695L35 20.6631L37.6014 28.6695C37.9696 29.8025 39.0254 30.5697 40.2168 30.5697H48.6352L41.8246 35.5178C40.8607 36.2181 40.4574 37.4594 40.8256 38.5924L43.427 46.5988L36.6164 41.6506C35.6526 40.9503 34.3474 40.9503 33.3836 41.6506L26.573 46.5988L29.1744 38.5924C29.5426 37.4594 29.1393 36.2181 28.1754 35.5179L27.1468 36.9336L28.1754 35.5178L21.3648 30.5697H29.7832C30.9745 30.5697 32.0304 29.8025 32.3986 28.6695ZM45.2944 47.9555L45.2933 47.9547L45.2944 47.9555Z" stroke="white" stroke-width="3.5"/>
<defs>
<linearGradient id="paint0_linear_3_4420" x1="35" y1="0" x2="35" y2="70" gradientUnits="userSpaceOnUse">
<stop stop-color="#F0745E"/>
<stop offset="1" stop-color="#FF330F"/>
</linearGradient>
</defs>
</svg>
