<svg width="123" height="43" viewBox="0 0 123 43" fill="none" xmlns="http://www.w3.org/2000/svg">
<path fill-rule="evenodd" clip-rule="evenodd" d="M49.8226 41.4029C49.0645 40.7964 48.4579 39.735 48.1547 39.1285L50.5807 38.0671C50.7323 38.3704 51.0356 38.8253 51.3388 39.2801C51.9453 39.8866 52.8551 40.4931 53.7648 40.4931C54.6746 40.4931 55.7359 40.0383 56.3424 39.2801C56.7973 38.522 57.1006 37.7639 57.1006 36.7025V35.7928C55.2811 38.0671 51.4904 37.7639 49.3677 35.3379C47.0933 32.9119 47.0933 28.818 49.3677 26.392C51.6421 24.1177 54.9778 23.8144 56.9489 25.9372V24.8758H59.5266V36.2476C59.5266 39.1285 58.4652 40.7964 57.1006 41.8578C56.1908 42.6159 54.8262 42.9191 53.6132 42.9191C52.2486 42.7675 50.884 42.3126 49.8226 41.4029ZM113.353 42.0094L115.931 35.9444L111.382 25.4823H113.96L117.144 32.9119L120.328 25.4823H122.906L115.931 42.0094H113.353ZM101.072 36.2476C100.314 35.4895 100.01 34.4281 100.01 33.3668C100.01 32.457 100.314 31.5473 100.92 30.9408C101.981 29.8794 103.498 29.4245 105.166 29.4245C106.227 29.4245 107.137 29.5762 107.895 30.031C107.895 28.2115 106.379 27.4534 105.166 27.4534C104.104 27.4534 103.043 28.0599 102.588 29.1213L100.314 28.2115C100.768 27.1502 101.981 25.179 105.014 25.179C106.53 25.179 108.046 25.6339 108.956 26.6953C109.866 27.7567 110.169 28.9697 110.169 30.6375V37.0058H107.592V35.9444C107.288 36.3993 106.682 36.7025 106.227 37.0058C105.62 37.309 104.862 37.4606 104.104 37.4606C103.194 37.309 101.83 37.0058 101.072 36.2476ZM20.2557 30.7892C20.2557 27.7567 22.5301 24.4209 26.624 24.4209C30.5662 24.4209 32.9922 27.7567 32.9922 30.7892C32.9922 33.8217 30.7179 37.1574 26.624 37.1574C22.5301 37.1574 20.2557 33.8217 20.2557 30.7892ZM33.902 30.7892C33.902 27.7567 36.1763 24.4209 40.2702 24.4209C44.2125 24.4209 46.6385 27.7567 46.6385 30.7892C46.6385 33.8217 44.3641 37.1574 40.2702 37.1574C36.328 37.1574 33.902 33.8217 33.902 30.7892ZM3.12215 34.1249C-0.668472 30.3343 -0.516861 24.1177 3.27376 20.1754C5.24488 18.2043 7.67089 17.2946 10.2485 17.2946C12.6745 17.2946 15.1005 18.2043 16.92 20.0238L15.1005 21.9949C12.3712 19.2657 7.97414 19.4173 5.39652 22.1465C2.66727 25.0274 2.66727 29.4245 5.39652 32.3054C8.12576 35.1863 12.6745 35.3379 15.4037 32.457C16.3135 31.5473 16.6168 30.3343 16.7684 29.1213H10.4001V26.392H19.346C19.4976 26.9985 19.4976 27.7567 19.4976 28.5148C19.4976 30.7892 18.5879 33.0635 17.0716 34.5798C15.4037 36.2477 12.9777 37.1574 10.5518 37.1574C7.8225 37.0058 5.09327 36.096 3.12215 34.1249ZM67.2594 35.1863C64.9851 32.7603 64.9851 28.6664 67.2594 26.0888C69.5338 23.6628 73.3244 23.6628 75.4472 26.0888C76.2053 26.8469 76.6602 27.9083 77.115 28.9697L68.7757 32.457C69.2306 33.5184 70.2919 34.4282 71.8082 34.4282C73.1728 34.4282 74.0826 33.9733 74.9923 32.6087L77.2667 34.1249C76.9634 34.4281 76.6602 34.7314 76.5086 35.0347C73.9309 37.6123 69.5338 37.6123 67.2594 35.1863ZM83.0284 37.0058V20.1754H88.4869C91.671 20.1754 94.2486 22.4498 94.2486 25.179C94.2486 27.9083 91.9743 30.1827 89.0934 30.1827H85.7576V36.8541H83.0284V37.0058ZM95.7649 37.0058V20.1754H98.3425V37.0058H95.7649ZM61.4977 36.7025V17.9011H64.2269V36.7025H61.4977ZM107.743 32.0022C107.137 31.5473 106.227 31.3957 105.317 31.3957C103.498 31.3957 102.436 32.3054 102.436 33.3668C102.436 34.4281 103.498 35.0347 104.559 35.0347C106.075 35.0347 107.743 33.8217 107.743 32.0022ZM30.1114 30.7892C30.1114 28.9697 28.8984 26.9985 26.624 26.9985C24.3496 26.9985 23.1366 28.9697 23.1366 30.7892C23.1366 32.6087 24.3496 34.5798 26.624 34.5798C28.7467 34.5798 30.1114 32.6087 30.1114 30.7892ZM43.7576 30.7892C43.7576 28.9697 42.5446 26.9985 40.2702 26.9985C37.9958 26.9985 36.7828 28.9697 36.7828 30.7892C36.7828 32.6087 37.9958 34.5798 40.2702 34.5798C42.5446 34.5798 43.7576 32.6087 43.7576 30.7892ZM57.2522 31.8505C57.2522 31.6989 57.2522 31.5473 57.4038 31.3957C57.4038 31.244 57.4038 30.9408 57.4038 30.7892C57.4038 30.6375 57.4038 30.3343 57.4038 30.1827V30.031C57.4038 29.8794 57.2522 29.5762 57.2522 29.4245C56.7973 27.9083 55.4327 26.8469 54.0681 26.8469C52.2486 26.8469 50.7323 28.6664 50.7323 30.6375C50.7323 32.7603 52.2486 34.4282 54.2197 34.4282C55.4327 34.5798 56.6457 33.5184 57.2522 31.8505ZM68.3208 30.4859L73.9309 28.0599C73.3244 26.9985 72.4147 26.6953 71.6565 26.6953C69.3822 26.8469 68.0175 29.2729 68.3208 30.4859ZM91.5194 25.3307C91.5194 23.8144 90.3064 22.753 88.6385 22.753H85.606V28.0599H88.7901C90.3064 28.0599 91.5194 26.8469 91.5194 25.3307Z" fill="#252B33"/>
<path d="M0.999481 5.31631C0.999481 2.58706 2.97062 0.919189 5.39661 0.919189C7.06449 0.919189 8.12586 1.67731 8.88399 2.73868L7.67098 3.49681C7.21611 2.89031 6.45799 2.43544 5.39661 2.43544C3.72874 2.43544 2.51573 3.64844 2.51573 5.46793C2.51573 7.28743 3.72874 8.50043 5.39661 8.50043C6.30636 8.50043 7.06449 8.04555 7.36774 7.7423V6.37768H4.94173V5.01306H9.0356V8.19718C8.27747 9.10693 7.06447 9.71342 5.54822 9.71342C2.9706 9.71342 0.999481 7.89393 0.999481 5.31631Z" fill="#252B33"/>
<path d="M10.8551 9.56203V1.07104H16.6168V2.43567H12.2197V4.55842H16.4652V5.92304H12.2197V8.34904H16.6168V9.71366L10.8551 9.56203Z" fill="#252B33"/>
<path d="M20.8622 9.56203V2.43567H18.2846V1.07104H24.9561V2.43567H22.3785V9.56203H20.8622Z" fill="#252B33"/>
<path d="M30.1113 9.56203V1.07104H31.6276V9.56203H30.1113Z" fill="#252B33"/>
<path d="M35.7214 9.56203V2.43567H33.1438V1.07104H39.8153V2.43567H37.2377V9.56203H35.7214Z" fill="#252B33"/>
<path d="M44.6674 5.31631C44.6674 2.73869 46.4869 0.919189 49.0645 0.919189C51.6421 0.919189 53.4616 2.73869 53.4616 5.31631C53.4616 7.89393 51.6421 9.71342 49.0645 9.71342C46.4869 9.71342 44.6674 7.7423 44.6674 5.31631ZM51.7937 5.31631C51.7937 3.49681 50.7324 2.28381 48.9129 2.28381C47.245 2.28381 46.032 3.64843 46.032 5.31631C46.032 7.1358 47.0934 8.3488 48.9129 8.3488C50.7324 8.3488 51.7937 6.98418 51.7937 5.31631Z" fill="#252B33"/>
<path d="M61.0428 9.56203L56.6457 3.49704V9.56203H55.1294V1.07104H56.6457L61.0428 6.98441V1.07104H62.559V9.56203H61.0428Z" fill="#252B33"/>
</svg>
