<svg width="49" height="46" viewBox="0 0 49 46" fill="none" xmlns="http://www.w3.org/2000/svg">
<path d="M22.6154 45.2309H13.1923C12.6925 45.2309 12.2131 45.0324 11.8597 44.6789C11.5062 44.3255 11.3077 43.8461 11.3077 43.3463V32.0386C11.3077 30.5391 11.9033 29.101 12.9637 28.0407C14.024 26.9804 15.462 26.3848 16.9615 26.3848H18.8461C20.3456 26.3848 21.7837 26.9804 22.844 28.0407C23.9043 29.101 24.5 30.5391 24.5 32.0386V43.3463C24.5 43.8461 24.3014 44.3255 23.948 44.6789C23.5946 45.0324 23.1152 45.2309 22.6154 45.2309ZM15.0769 41.4617H20.7308V32.0386C20.7308 31.5388 20.5322 31.0594 20.1788 30.706C19.8253 30.3526 19.346 30.154 18.8461 30.154H16.9615C16.4617 30.154 15.9823 30.3526 15.6289 30.706C15.2755 31.0594 15.0769 31.5388 15.0769 32.0386V41.4617Z" fill="#F0745E"/>
<path d="M39.577 45.2308H9.42313C7.92364 45.2308 6.48556 44.6351 5.42526 43.5748C4.36496 42.5145 3.76929 41.0765 3.76929 39.577V20.7308C3.76929 20.231 3.96784 19.7516 4.32128 19.3982C4.67471 19.0447 5.15407 18.8462 5.6539 18.8462C6.15373 18.8462 6.63309 19.0447 6.98653 19.3982C7.33996 19.7516 7.53852 20.231 7.53852 20.7308V39.577C7.53852 40.0768 7.73708 40.5562 8.09051 40.9096C8.44394 41.263 8.9233 41.4616 9.42313 41.4616H39.577C40.0768 41.4616 40.5562 41.263 40.9096 40.9096C41.263 40.5562 41.4616 40.0768 41.4616 39.577V20.7308C41.4616 20.231 41.6602 19.7516 42.0136 19.3982C42.367 19.0447 42.8464 18.8462 43.3462 18.8462C43.846 18.8462 44.3254 19.0447 44.6788 19.3982C45.0323 19.7516 45.2308 20.231 45.2308 20.7308V39.577C45.2308 41.0765 44.6352 42.5145 43.5749 43.5748C42.5146 44.6351 41.0765 45.2308 39.577 45.2308Z" fill="#252B33"/>
<path d="M41.4615 22.6154C39.4622 22.6154 37.5448 21.8212 36.131 20.4074C34.7173 18.9937 33.9231 17.0762 33.9231 15.0769C33.9231 14.5771 34.1216 14.0977 34.4751 13.7443C34.8285 13.3909 35.3079 13.1923 35.8077 13.1923C36.3075 13.1923 36.7869 13.3909 37.1403 13.7443C37.4938 14.0977 37.6923 14.5771 37.6923 15.0769C37.6923 16.0766 38.0894 17.0353 38.7963 17.7422C39.5032 18.449 40.4619 18.8462 41.4615 18.8462C42.4612 18.8462 43.4199 18.449 44.1268 17.7422C44.8337 17.0353 45.2308 16.0766 45.2308 15.0769V13.6446L40.2931 3.76923H8.70692L3.76923 13.6446V15.0769C3.76923 16.0766 4.16635 17.0353 4.87321 17.7422C5.58008 18.449 6.5388 18.8462 7.53846 18.8462C8.53812 18.8462 9.49684 18.449 10.2037 17.7422C10.9106 17.0353 11.3077 16.0766 11.3077 15.0769C11.3077 14.5771 11.5063 14.0977 11.8597 13.7443C12.2131 13.3909 12.6925 13.1923 13.1923 13.1923C13.6921 13.1923 14.1715 13.3909 14.5249 13.7443C14.8784 14.0977 15.0769 14.5771 15.0769 15.0769C15.0769 17.0762 14.2827 18.9937 12.869 20.4074C11.4552 21.8212 9.53779 22.6154 7.53846 22.6154C5.53914 22.6154 3.6217 21.8212 2.20796 20.4074C0.794228 18.9937 0 17.0762 0 15.0769V13.1923C0.00176887 12.8973 0.0727764 12.6068 0.207308 12.3442L5.86115 1.03654C6.01777 0.725738 6.25738 0.464374 6.55344 0.281416C6.8495 0.098459 7.19043 0.00105483 7.53846 0H41.4615C41.8096 0.00105483 42.1505 0.098459 42.4466 0.281416C42.7426 0.464374 42.9822 0.725738 43.1388 1.03654L48.7927 12.3442C48.9272 12.6068 48.9982 12.8973 49 13.1923V15.0769C49 17.0762 48.2058 18.9937 46.792 20.4074C45.3783 21.8212 43.4609 22.6154 41.4615 22.6154Z" fill="#252B33"/>
<path d="M18.8461 22.6155C16.8468 22.6155 14.9294 21.8212 13.5156 20.4075C12.1019 18.9938 11.3077 17.0763 11.3077 15.077C11.3077 14.5772 11.5062 14.0978 11.8597 13.7444C12.2131 13.3909 12.6925 13.1924 13.1923 13.1924C13.6921 13.1924 14.1715 13.3909 14.5249 13.7444C14.8784 14.0978 15.0769 14.5772 15.0769 15.077C15.0769 16.0767 15.474 17.0354 16.1809 17.7422C16.8878 18.4491 17.8465 18.8462 18.8461 18.8462C19.8458 18.8462 20.8045 18.4491 21.5114 17.7422C22.2183 17.0354 22.6154 16.0767 22.6154 15.077C22.6154 14.5772 22.8139 14.0978 23.1674 13.7444C23.5208 13.3909 24.0002 13.1924 24.5 13.1924C24.9998 13.1924 25.4792 13.3909 25.8326 13.7444C26.186 14.0978 26.3846 14.5772 26.3846 15.077C26.3846 17.0763 25.5904 18.9938 24.1766 20.4075C22.7629 21.8212 20.8455 22.6155 18.8461 22.6155Z" fill="#252B33"/>
<path d="M30.1538 22.6155C28.1545 22.6155 26.2371 21.8212 24.8234 20.4075C23.4096 18.9938 22.6154 17.0763 22.6154 15.077C22.6154 14.5772 22.8139 14.0978 23.1674 13.7444C23.5208 13.3909 24.0002 13.1924 24.5 13.1924C24.9998 13.1924 25.4792 13.3909 25.8326 13.7444C26.1861 14.0978 26.3846 14.5772 26.3846 15.077C26.3846 16.0767 26.7817 17.0354 27.4886 17.7422C28.1955 18.4491 29.1542 18.8462 30.1538 18.8462C31.1535 18.8462 32.1122 18.4491 32.8191 17.7422C33.526 17.0354 33.9231 16.0767 33.9231 15.077C33.9231 14.5772 34.1216 14.0978 34.4751 13.7444C34.8285 13.3909 35.3079 13.1924 35.8077 13.1924C36.3075 13.1924 36.7869 13.3909 37.1403 13.7444C37.4938 14.0978 37.6923 14.5772 37.6923 15.077C37.6923 17.0763 36.8981 18.9938 35.4843 20.4075C34.0706 21.8212 32.1532 22.6155 30.1538 22.6155Z" fill="#252B33"/>
<path d="M35.8077 32.0385H30.1538C29.654 32.0385 29.1746 31.84 28.8212 31.4865C28.4678 31.1331 28.2692 30.6537 28.2692 30.1539C28.2692 29.6541 28.4678 29.1747 28.8212 28.8213C29.1746 28.4678 29.654 28.2693 30.1538 28.2693H35.8077C36.3075 28.2693 36.7869 28.4678 37.1403 28.8213C37.4937 29.1747 37.6923 29.6541 37.6923 30.1539C37.6923 30.6537 37.4937 31.1331 37.1403 31.4865C36.7869 31.84 36.3075 32.0385 35.8077 32.0385Z" fill="#F0745E"/>
</svg>
