<svg width="90" height="91" viewBox="0 0 90 91" fill="none" xmlns="http://www.w3.org/2000/svg">
<g filter="url(#filter0_d_3_4364)">
<circle cx="45" cy="45.2" r="25" fill="white"/>
</g>
<path fill-rule="evenodd" clip-rule="evenodd" d="M55.8334 45.2C55.8334 45.5472 55.6907 45.8803 55.4368 46.1258C55.1828 46.3713 54.8384 46.5093 54.4793 46.5093H38.7917L44.6059 52.1287C44.7317 52.2505 44.8316 52.395 44.8997 52.554C44.9679 52.7131 45.0029 52.8836 45.0029 53.0557C45.0029 53.2279 44.9679 53.3983 44.8997 53.5574C44.8316 53.7164 44.7317 53.861 44.6059 53.9827C44.48 54.1044 44.3305 54.201 44.166 54.2669C44.0015 54.3328 43.8253 54.3667 43.6472 54.3667C43.4692 54.3667 43.2929 54.3328 43.1284 54.2669C42.9639 54.201 42.8145 54.1044 42.6886 53.9827L34.5645 46.127C34.4384 46.0053 34.3383 45.8609 34.2701 45.7018C34.2018 45.5427 34.1667 45.3722 34.1667 45.2C34.1667 45.0278 34.2018 44.8573 34.2701 44.6982C34.3383 44.5391 34.4384 44.3946 34.5645 44.273L42.6886 36.4173C42.9428 36.1714 43.2877 36.0333 43.6472 36.0333C44.0068 36.0333 44.3516 36.1714 44.6059 36.4173C44.8601 36.6631 45.0029 36.9966 45.0029 37.3443C45.0029 37.692 44.8601 38.0254 44.6059 38.2712L38.7917 43.8907H54.4793C54.8384 43.8907 55.1828 44.0286 55.4368 44.2742C55.6907 44.5197 55.8334 44.8527 55.8334 45.2Z" fill="#252B33"/>
<defs>
<filter id="filter0_d_3_4364" x="0" y="0.200012" width="90" height="89.9999" filterUnits="userSpaceOnUse" color-interpolation-filters="sRGB">
<feFlood flood-opacity="0" result="BackgroundImageFix"/>
<feColorMatrix in="SourceAlpha" type="matrix" values="0 0 0 0 0 0 0 0 0 0 0 0 0 0 0 0 0 0 127 0" result="hardAlpha"/>
<feOffset/>
<feGaussianBlur stdDeviation="10"/>
<feColorMatrix type="matrix" values="0 0 0 0 0.509804 0 0 0 0 0.509804 0 0 0 0 0.509804 0 0 0 0.2 0"/>
<feBlend mode="normal" in2="BackgroundImageFix" result="effect1_dropShadow_3_4364"/>
<feBlend mode="normal" in="SourceGraphic" in2="effect1_dropShadow_3_4364" result="shape"/>
</filter>
</defs>
</svg>
