<svg width="90" height="91" viewBox="0 0 90 91" fill="none" xmlns="http://www.w3.org/2000/svg">
<g filter="url(#filter0_d_3_4361)">
<circle cx="45" cy="45.2" r="25" fill="white"/>
</g>
<path fill-rule="evenodd" clip-rule="evenodd" d="M34.1667 44.7833C34.1667 45.1463 34.3093 45.4945 34.5633 45.7512C34.8172 46.0079 35.1616 46.1521 35.5207 46.1521H51.2083L45.3942 52.027C45.2683 52.1542 45.1684 52.3053 45.1003 52.4716C45.0322 52.6379 44.9971 52.8161 44.9971 52.9961C44.9971 53.1761 45.0322 53.3543 45.1003 53.5206C45.1684 53.6868 45.2683 53.8379 45.3942 53.9652C45.5201 54.0925 45.6695 54.1934 45.834 54.2623C45.9985 54.3312 46.1748 54.3666 46.3528 54.3666C46.5309 54.3666 46.7071 54.3312 46.8716 54.2623C47.0361 54.1934 47.1856 54.0925 47.3115 53.9652L55.4356 45.7524C55.5616 45.6252 55.6617 45.4742 55.7299 45.3079C55.7982 45.1416 55.8333 44.9633 55.8333 44.7833C55.8333 44.6032 55.7982 44.425 55.7299 44.2587C55.6617 44.0924 55.5616 43.9413 55.4356 43.8142L47.3115 35.6014C47.0572 35.3443 46.7124 35.2 46.3528 35.2C45.9933 35.2 45.6484 35.3443 45.3942 35.6014C45.1399 35.8584 44.9971 36.207 44.9971 36.5705C44.9971 36.934 45.1399 37.2826 45.3942 37.5396L51.2083 43.4145H35.5207C35.1616 43.4145 34.8172 43.5587 34.5633 43.8154C34.3093 44.0721 34.1667 44.4203 34.1667 44.7833Z" fill="#252B33"/>
<defs>
<filter id="filter0_d_3_4361" x="0" y="0.199951" width="90" height="90" filterUnits="userSpaceOnUse" color-interpolation-filters="sRGB">
<feFlood flood-opacity="0" result="BackgroundImageFix"/>
<feColorMatrix in="SourceAlpha" type="matrix" values="0 0 0 0 0 0 0 0 0 0 0 0 0 0 0 0 0 0 127 0" result="hardAlpha"/>
<feOffset/>
<feGaussianBlur stdDeviation="10"/>
<feColorMatrix type="matrix" values="0 0 0 0 0.509804 0 0 0 0 0.509804 0 0 0 0 0.509804 0 0 0 0.2 0"/>
<feBlend mode="normal" in2="BackgroundImageFix" result="effect1_dropShadow_3_4361"/>
<feBlend mode="normal" in="SourceGraphic" in2="effect1_dropShadow_3_4361" result="shape"/>
</filter>
</defs>
</svg>
