<svg width="32" height="37" viewBox="0 0 32 37" fill="none" xmlns="http://www.w3.org/2000/svg">
<path fill-rule="evenodd" clip-rule="evenodd" d="M1.62682 -0.00012207C1.05321 -0.00012207 0.588196 0.460396 0.588196 1.02847V18.7642L4.08618 16.3246L1.69879 14.9167C1.37484 14.7257 1.20401 14.3546 1.27018 13.9856C1.33634 13.6167 1.62559 13.3274 1.99594 13.2597L15.0307 10.8772C15.3212 10.824 15.6194 10.9157 15.8292 11.1226C16.039 11.3295 16.134 11.6254 16.0834 11.915L13.7778 25.1071C13.7132 25.4775 13.4236 25.7687 13.0522 25.8368C12.6807 25.9051 12.3059 25.736 12.1126 25.413L10.4939 22.708L1.18368 36.5489C1.31808 36.6117 1.4683 36.6469 1.62682 36.6469H12.7774C22.9959 36.6469 31.2796 28.4432 31.2796 18.3234C31.2796 8.20361 22.996 -0.00012207 12.7774 -0.00012207H1.62682ZM0.588196 34.2034L9.78825 20.5264C9.96061 20.2702 10.2528 20.1199 10.5624 20.128C10.872 20.1362 11.1558 20.3017 11.3142 20.5665L12.4166 22.4086L14.0822 12.8779L4.69399 14.5939L6.21047 15.4882C6.47432 15.6438 6.64077 15.9221 6.65247 16.227C6.66417 16.5321 6.51952 16.8222 6.26836 16.9973L2.26703 19.788L0.588196 20.9588V34.2034Z" fill="#F47342"/>
</svg>
