<svg width="22" height="19" viewBox="0 0 22 19" fill="none" xmlns="http://www.w3.org/2000/svg">
<path fill-rule="evenodd" clip-rule="evenodd" d="M21.6665 9.16654C21.6665 9.51379 21.5239 9.84681 21.27 10.0924C21.016 10.3379 20.6716 10.4758 20.3125 10.4758H4.62491L10.439 16.0953C10.5649 16.217 10.6648 16.3615 10.7329 16.5206C10.8011 16.6796 10.8361 16.8501 10.8361 17.0223C10.8361 17.1944 10.8011 17.3649 10.7329 17.5239C10.6648 17.683 10.5649 17.8275 10.439 17.9492C10.3132 18.071 10.1637 18.1675 9.99922 18.2334C9.83474 18.2993 9.65844 18.3332 9.48041 18.3332C9.30237 18.3332 9.12608 18.2993 8.96159 18.2334C8.79711 18.1675 8.64765 18.071 8.52176 17.9492L0.397671 10.0935C0.271576 9.9719 0.171533 9.82742 0.103273 9.66835C0.0350136 9.50929 -0.00012207 9.33876 -0.00012207 9.16654C-0.00012207 8.99433 0.0350136 8.8238 0.103273 8.66474C0.171533 8.50567 0.271576 8.36119 0.397671 8.23957L8.52176 0.383844C8.77601 0.137995 9.12085 -0.00012207 9.48041 -0.00012207C9.83997 -0.00012207 10.1848 0.137995 10.439 0.383844C10.6933 0.629693 10.8361 0.963137 10.8361 1.31082C10.8361 1.6585 10.6933 1.99195 10.439 2.2378L4.62491 7.85726H20.3125C20.6716 7.85726 21.016 7.9952 21.27 8.24074C21.5239 8.48628 21.6665 8.8193 21.6665 9.16654Z" fill="url(#paint0_linear_3_4307)"/>
<defs>
<linearGradient id="paint0_linear_3_4307" x1="10.8332" y1="-0.00012207" x2="10.8332" y2="18.3332" gradientUnits="userSpaceOnUse">
<stop stop-color="#F0745E"/>
<stop offset="1" stop-color="#FF330F"/>
</linearGradient>
</defs>
</svg>
