<svg width="22" height="20" viewBox="0 0 22 20" fill="none" xmlns="http://www.w3.org/2000/svg">
<path fill-rule="evenodd" clip-rule="evenodd" d="M0.333363 9.58333C0.333363 9.94636 0.476017 10.2945 0.729944 10.5512C0.983871 10.8079 1.32827 10.9521 1.68738 10.9521H17.375L11.5609 16.827C11.435 16.9543 11.3351 17.1054 11.267 17.2717C11.1988 17.4379 11.1638 17.6162 11.1638 17.7961C11.1638 17.9761 11.1988 18.1543 11.267 18.3206C11.3351 18.4869 11.435 18.638 11.5609 18.7652C11.6867 18.8925 11.8362 18.9935 12.0007 19.0623C12.1652 19.1312 12.3415 19.1667 12.5195 19.1667C12.6975 19.1667 12.8738 19.1312 13.0383 19.0623C13.2028 18.9935 13.3523 18.8925 13.4781 18.7652L21.6022 10.5524C21.7283 10.4253 21.8284 10.2742 21.8966 10.1079C21.9649 9.94165 22 9.76338 22 9.58333C22 9.40329 21.9649 9.22501 21.8966 9.05872C21.8284 8.89242 21.7283 8.74137 21.6022 8.61422L13.4781 0.401419C13.2239 0.144395 12.8791 0 12.5195 0C12.1599 0 11.8151 0.144395 11.5609 0.401419C11.3066 0.658443 11.1638 1.00704 11.1638 1.37053C11.1638 1.73402 11.3066 2.08262 11.5609 2.33964L17.375 8.21453H1.68738C1.32827 8.21453 0.983871 8.35875 0.729944 8.61545C0.476017 8.87215 0.333363 9.2203 0.333363 9.58333Z" fill="url(#paint0_linear_3_4304)"/>
<defs>
<linearGradient id="paint0_linear_3_4304" x1="11.1667" y1="0" x2="11.1667" y2="19.1667" gradientUnits="userSpaceOnUse">
<stop stop-color="#F0745E"/>
<stop offset="1" stop-color="#FF330F"/>
</linearGradient>
</defs>
</svg>
