<svg width="166" height="43" viewBox="0 0 166 43" fill="none" xmlns="http://www.w3.org/2000/svg">
<path d="M25.5748 20.2443C25.5934 18.8228 25.9766 17.429 26.6887 16.1926C27.4008 14.9562 28.4187 13.9174 29.6477 13.1728C28.867 12.074 27.837 11.1698 26.6395 10.5318C25.4421 9.89393 24.1102 9.53993 22.7496 9.49797C19.8474 9.19777 17.0337 11.2095 15.5547 11.2095C14.0472 11.2095 11.7701 9.52778 9.31793 9.57757C7.7319 9.62809 6.18619 10.0826 4.83141 10.8968C3.47662 11.711 2.35896 12.8571 1.58732 14.2235C-1.75536 19.9263 0.738021 28.3073 3.93993 32.9172C5.54179 35.1744 7.41407 37.6958 9.86391 37.6064C12.2612 37.5085 13.1567 36.1 16.0503 36.1C18.9173 36.1 19.7573 37.6064 22.2568 37.5496C24.8293 37.5085 26.4502 35.2824 27.9958 33.0037C29.1469 31.3953 30.0326 29.6176 30.6202 27.7366C29.1257 27.1137 27.8503 26.0711 26.9531 24.7388C26.0559 23.4064 25.5765 21.8433 25.5748 20.2443ZM20.8536 6.46642C22.2562 4.80717 22.9473 2.67446 22.7799 0.52124C20.637 0.743069 18.6577 1.75232 17.2362 3.3479C16.5411 4.12736 16.0088 5.03417 15.6696 6.01649C15.3304 6.9988 15.191 8.03737 15.2594 9.0728C16.3312 9.08369 17.3916 8.85476 18.3606 8.40326C19.3297 7.95176 20.1821 7.28947 20.8538 6.46626L20.8536 6.46642ZM54.3364 32.1188H46.4693L44.5801 37.6159H41.2477L48.6994 17.2778H52.1614L59.613 37.6159H56.2241L54.3364 32.1188ZM47.2841 29.582H53.52L50.4459 20.6607H50.3598L47.2841 29.582ZM75.7058 30.2028C75.7058 34.8105 73.2029 37.771 69.4261 37.771C68.4694 37.8203 67.5179 37.6031 66.6806 37.1443C65.8433 36.6855 65.154 36.0036 64.6917 35.1767H64.6202V42.5212H61.5313V22.7878H64.5212V25.2542H64.578C65.0616 24.4312 65.7625 23.7529 66.6062 23.2913C67.4499 22.8297 68.4048 22.6021 69.3693 22.6327C73.1883 22.6327 75.7058 25.6076 75.7058 30.2026V30.2028ZM72.531 30.2028C72.531 27.2007 70.9567 25.227 68.5546 25.227C66.1945 25.227 64.6072 27.2421 64.6072 30.2026C64.6072 33.1904 66.1945 35.1913 68.5546 35.1913C70.9567 35.1913 72.531 33.232 72.531 30.2026V30.2028ZM92.2684 30.2028C92.2684 34.8105 89.7649 37.771 85.988 37.771C85.0312 37.8203 84.0797 37.6031 83.2424 37.1443C82.4051 36.6855 81.7158 36.0036 81.2535 35.1767H81.182V42.5212H78.0933V22.7878H81.083V25.2542H81.1398C81.6234 24.4312 82.3243 23.7529 83.168 23.2913C84.0117 22.8297 84.9666 22.6021 85.9311 22.6327C89.7503 22.6327 92.2684 25.6076 92.2684 30.2026V30.2028ZM89.093 30.2028C89.093 27.2007 87.5185 25.227 85.1164 25.227C82.7563 25.227 81.1691 27.2421 81.1691 30.2026C81.1691 33.1904 82.7563 35.1913 85.1164 35.1913C87.5185 35.1913 89.093 33.232 89.093 30.2026V30.2028ZM103.213 31.9493C103.442 33.9661 105.43 35.2904 108.147 35.2904C110.75 35.2904 112.624 33.9661 112.624 32.1475C112.624 30.5688 111.494 29.6236 108.819 28.9759L106.144 28.3409C102.354 27.4388 100.595 25.6923 100.595 22.8581C100.595 19.349 103.698 16.9388 108.103 16.9388C112.466 16.9388 115.456 19.349 115.556 22.8581H112.439C112.252 20.8285 110.549 19.6033 108.061 19.6033C105.573 19.6033 103.87 20.843 103.87 22.647C103.87 24.085 104.958 24.931 107.618 25.5786L109.892 26.1289C114.126 27.1157 115.884 28.792 115.884 31.7667C115.884 35.5718 112.81 37.9549 107.918 37.9549C103.341 37.9549 100.251 35.6276 100.051 31.9491L103.213 31.9493ZM122.553 19.2789V22.7878H125.415V25.1982H122.553V33.3727C122.553 34.6426 123.126 35.2344 124.384 35.2344C124.724 35.2285 125.063 35.205 125.4 35.164V37.56C124.835 37.6641 124.26 37.7112 123.685 37.7006C120.638 37.7006 119.45 36.5731 119.45 33.6973V25.1982H117.262V22.7878H119.45V19.2789H122.553ZM127.071 30.2028C127.071 25.5372 129.859 22.6055 134.207 22.6055C138.57 22.6055 141.346 25.5372 141.346 30.2028C141.346 34.8809 138.585 37.7998 134.207 37.7998C129.831 37.7998 127.071 34.8809 127.071 30.2028ZM138.198 30.2028C138.198 27.0024 136.71 25.1133 134.207 25.1133C131.704 25.1133 130.216 27.0166 130.216 30.2028C130.216 33.4159 131.704 35.2904 134.207 35.2904C136.71 35.2904 138.198 33.4159 138.198 30.2028ZM143.892 22.7878H146.838V25.3117H146.909C147.109 24.5234 147.577 23.8268 148.237 23.3389C148.896 22.8511 149.705 22.6017 150.529 22.6327C150.885 22.6315 151.24 22.6696 151.587 22.7462V25.5932C151.138 25.4579 150.669 25.3958 150.199 25.4093C149.751 25.3913 149.303 25.4693 148.888 25.6378C148.473 25.8063 148.1 26.0614 147.794 26.3855C147.488 26.7096 147.257 27.095 147.117 27.5154C146.976 27.9358 146.93 28.3811 146.981 28.8208V37.6159H143.892V22.7878ZM165.828 33.2607C165.412 35.9526 162.752 37.7998 159.349 37.7998C154.971 37.7998 152.254 34.9098 152.254 30.273C152.254 25.622 154.986 22.6055 159.219 22.6055C163.382 22.6055 166 25.4237 166 29.9196V30.9624H155.372V31.1463C155.323 31.692 155.392 32.2418 155.576 32.7591C155.759 33.2764 156.051 33.7494 156.434 34.1466C156.817 34.5439 157.281 34.8563 157.796 35.0632C158.311 35.27 158.865 35.3666 159.42 35.3464C160.15 35.4138 160.883 35.2472 161.509 34.8714C162.135 34.4956 162.621 33.9307 162.895 33.2607H165.828ZM155.387 28.8352H162.91C162.938 28.3445 162.862 27.8535 162.688 27.3929C162.514 26.9323 162.245 26.5122 161.899 26.1588C161.552 25.8054 161.135 25.5264 160.674 25.3394C160.213 25.1523 159.718 25.0612 159.219 25.0717C158.716 25.0688 158.217 25.164 157.752 25.3519C157.286 25.5398 156.863 25.8167 156.507 26.1666C156.151 26.5165 155.868 26.9325 155.676 27.3905C155.484 27.8485 155.385 28.3395 155.387 28.8352ZM46.8978 1.96921C47.5454 1.92341 48.1952 2.01981 48.8003 2.25145C49.4055 2.48309 49.951 2.8442 50.3974 3.30873C50.8438 3.77326 51.18 4.32964 51.3817 4.93772C51.5835 5.5458 51.6458 6.19042 51.5641 6.8251C51.5641 9.94705 49.8517 11.7417 46.8978 11.7417H43.3156V1.96905L46.8978 1.96921ZM44.856 10.3596H46.7258C47.1885 10.3868 47.6515 10.3121 48.0812 10.1407C48.5109 9.96937 48.8964 9.70577 49.2097 9.3691C49.5229 9.03243 49.7561 8.63117 49.8921 8.19451C50.0282 7.75786 50.0637 7.29681 49.9962 6.84491C50.0588 6.3948 50.0197 5.9366 49.8816 5.50315C49.7434 5.06969 49.5097 4.67171 49.1971 4.33771C48.8846 4.00372 48.5009 3.74198 48.0737 3.57125C47.6464 3.40053 47.1861 3.32504 46.7258 3.3502H44.856V10.3596ZM53.3041 8.05098C53.257 7.56633 53.3133 7.07734 53.4692 6.61536C53.6252 6.15339 53.8774 5.72864 54.2097 5.36835C54.542 5.00806 54.9471 4.72019 55.3989 4.5232C55.8507 4.32621 56.3394 4.22445 56.8334 4.22445C57.3275 4.22445 57.8161 4.32621 58.2679 4.5232C58.7198 4.72019 59.1248 5.00806 59.4571 5.36835C59.7894 5.72864 60.0417 6.15339 60.1976 6.61536C60.3536 7.07734 60.4098 7.56633 60.3628 8.05098C60.4108 8.5362 60.3553 9.02597 60.1999 9.48879C60.0444 9.95162 59.7923 10.3773 59.4599 10.7384C59.1275 11.0995 58.7221 11.388 58.2698 11.5855C57.8174 11.783 57.3282 11.885 56.8334 11.885C56.3387 11.885 55.8494 11.783 55.3971 11.5855C54.9447 11.388 54.5393 11.0995 54.2069 10.7384C53.8745 10.3773 53.6225 9.95162 53.467 9.48879C53.3115 9.02597 53.256 8.5362 53.3041 8.05098ZM58.8437 8.05098C58.8437 6.45234 58.1149 5.51749 56.8359 5.51749C55.552 5.51749 54.8299 6.45234 54.8299 8.05098C54.8299 9.66241 55.5522 10.5901 56.8359 10.5901C58.1149 10.5901 58.8437 9.65602 58.8437 8.05098ZM69.7459 11.7416H68.2135L66.6668 6.31001H66.55L65.0098 11.7416H63.4922L61.4293 4.36661H62.9273L64.268 9.99406H64.3784L65.9171 4.36661H67.334L68.8727 9.99406H68.9895L70.3236 4.36661H71.8007L69.7459 11.7416ZM73.5357 4.36677H74.9576V5.53829H75.0679C75.2551 5.11747 75.5709 4.76471 75.9713 4.52917C76.3716 4.29363 76.8366 4.18705 77.3014 4.22428C77.6655 4.19732 78.0311 4.25143 78.3712 4.38261C78.7112 4.5138 79.017 4.71869 79.2657 4.98211C79.5145 5.24554 79.7 5.56075 79.8083 5.90438C79.9167 6.24802 79.9452 6.61128 79.8918 6.96726V11.7414H78.4147V7.33281C78.4147 6.14771 77.892 5.55827 76.7998 5.55827C76.5525 5.54694 76.3057 5.58841 76.0763 5.67986C75.8468 5.7713 75.6402 5.91054 75.4704 6.08805C75.3007 6.26556 75.1719 6.47713 75.0929 6.70826C75.0139 6.93939 74.9866 7.18462 75.0127 7.42715V11.7416H73.5357V4.36677ZM82.2452 1.4877H83.7221V11.7416H82.2452V1.4877ZM85.7754 8.05098C85.7283 7.56627 85.7846 7.07721 85.9406 6.61517C86.0965 6.15313 86.3488 5.72832 86.6812 5.36798C87.0135 5.00765 87.4186 4.71974 87.8705 4.52272C88.3224 4.32571 88.8111 4.22394 89.3052 4.22394C89.7993 4.22394 90.288 4.32571 90.7399 4.52272C91.1918 4.71974 91.5969 5.00765 91.9293 5.36798C92.2616 5.72832 92.5139 6.15313 92.6699 6.61517C92.8258 7.07721 92.8821 7.56627 92.835 8.05098C92.8829 8.53613 92.8272 9.02577 92.6715 9.48845C92.5159 9.95112 92.2638 10.3766 91.9314 10.7375C91.5989 11.0985 91.1936 11.3869 90.7413 11.5843C90.289 11.7817 89.7999 11.8836 89.3052 11.8836C88.8106 11.8836 88.3214 11.7817 87.8691 11.5843C87.4168 11.3869 87.0115 11.0985 86.679 10.7375C86.3466 10.3766 86.0945 9.95112 85.9389 9.48845C85.7832 9.02577 85.7276 8.53613 85.7754 8.05098ZM91.3149 8.05098C91.3149 6.45234 90.5861 5.51749 89.3072 5.51749C88.0233 5.51749 87.3011 6.45234 87.3011 8.05098C87.3011 9.66241 88.0235 10.5901 89.3072 10.5901C90.5861 10.5901 91.3149 9.65602 91.3149 8.05098ZM94.3899 9.65602C94.3899 8.32843 95.3929 7.56309 97.1734 7.45434L99.2006 7.3392V6.70259C99.2006 5.92366 98.6781 5.48391 97.6685 5.48391C96.844 5.48391 96.2726 5.78215 96.1087 6.30362H94.6787C94.8296 5.03679 96.0389 4.22445 97.7367 4.22445C99.613 4.22445 100.671 5.14489 100.671 6.70259V11.7416H99.2493V10.7052H99.1325C98.8953 11.0769 98.5622 11.38 98.1673 11.5834C97.7724 11.7869 97.3297 11.8834 96.8846 11.8631C96.5704 11.8953 96.2529 11.8623 95.9524 11.7661C95.652 11.67 95.3754 11.5129 95.1403 11.305C94.9053 11.097 94.7171 10.8428 94.5878 10.5588C94.4585 10.2748 94.3911 9.96728 94.3899 9.65602ZM99.2006 9.0258V8.40917L97.373 8.5243C96.3424 8.59227 95.8749 8.93785 95.8749 9.58789C95.8749 10.2517 96.4593 10.638 97.2627 10.638C97.4981 10.6615 97.7359 10.6381 97.962 10.5692C98.188 10.5002 98.3977 10.3872 98.5785 10.2368C98.7593 10.0863 98.9076 9.90162 99.0145 9.69358C99.1213 9.48554 99.1846 9.25844 99.2006 9.0258ZM102.612 8.05098C102.612 5.72057 103.828 4.24443 105.719 4.24443C106.187 4.22318 106.651 4.33357 107.057 4.56269C107.464 4.7918 107.796 5.13019 108.014 5.53829H108.124V1.48754H109.601V11.7414H108.186V10.5761H108.069C107.834 10.9815 107.491 11.3157 107.076 11.5425C106.662 11.7693 106.193 11.8801 105.719 11.8629C103.815 11.8629 102.612 10.3866 102.612 8.05082V8.05098ZM104.138 8.05098C104.138 9.61507 104.886 10.5565 106.138 10.5565C107.382 10.5565 108.152 9.60164 108.152 8.05721C108.152 6.52031 107.374 5.55188 106.138 5.55188C104.894 5.55188 104.138 6.4995 104.138 8.05098ZM115.712 8.05098C115.665 7.56633 115.721 7.07734 115.877 6.61536C116.033 6.15339 116.286 5.72864 116.618 5.36835C116.95 5.00806 117.355 4.72019 117.807 4.5232C118.259 4.32621 118.747 4.22445 119.242 4.22445C119.736 4.22445 120.224 4.32621 120.676 4.5232C121.128 4.72019 121.533 5.00806 121.865 5.36835C122.198 5.72864 122.45 6.15339 122.606 6.61536C122.762 7.07734 122.818 7.56633 122.771 8.05098C122.819 8.5362 122.763 9.02597 122.608 9.48879C122.452 9.95162 122.2 10.3773 121.868 10.7384C121.536 11.0995 121.13 11.388 120.678 11.5855C120.226 11.783 119.736 11.885 119.242 11.885C118.747 11.885 118.258 11.783 117.805 11.5855C117.353 11.388 116.947 11.0995 116.615 10.7384C116.283 10.3773 116.031 9.95162 115.875 9.48879C115.72 9.02597 115.664 8.5362 115.712 8.05098ZM121.252 8.05098C121.252 6.45234 120.523 5.51749 119.244 5.51749C117.96 5.51749 117.238 6.45234 117.238 8.05098C117.238 9.66241 117.96 10.5901 119.244 10.5901C120.523 10.5901 121.252 9.65602 121.252 8.05098ZM124.753 4.36677H126.175V5.53829H126.285C126.472 5.11747 126.788 4.76471 127.188 4.52917C127.589 4.29363 128.054 4.18705 128.518 4.22428C128.882 4.19732 129.248 4.25143 129.588 4.38261C129.928 4.5138 130.234 4.71869 130.483 4.98211C130.732 5.24554 130.917 5.56075 131.025 5.90438C131.134 6.24802 131.162 6.61128 131.109 6.96726V11.7414H129.632V7.33281C129.632 6.14771 129.109 5.55827 128.017 5.55827C127.77 5.54694 127.523 5.58841 127.293 5.67986C127.064 5.7713 126.857 5.91054 126.687 6.08805C126.518 6.26556 126.389 6.47713 126.31 6.70826C126.231 6.93939 126.204 7.18462 126.23 7.42715V11.7416H124.753L124.753 4.36677ZM139.455 2.53065V4.40035H141.076V5.62623H139.455V9.41838C139.455 10.1909 139.778 10.5293 140.513 10.5293C140.701 10.5286 140.889 10.5174 141.076 10.4956V11.708C140.811 11.7548 140.542 11.7796 140.273 11.7824C138.63 11.7824 137.976 11.2129 137.976 9.79114V5.62623H136.788V4.40018H137.976V2.53081L139.455 2.53065ZM143.094 1.4877H144.558V5.55188H144.674C144.871 5.12715 145.195 4.7724 145.604 4.53597C146.012 4.29954 146.484 4.19293 146.956 4.23067C147.319 4.21124 147.681 4.27084 148.017 4.40522C148.353 4.53959 148.655 4.74543 148.901 5.00805C149.148 5.27066 149.332 5.58359 149.441 5.92449C149.551 6.26539 149.582 6.62586 149.534 6.9802V11.7416H148.055V7.3392C148.055 6.16114 147.499 5.56465 146.455 5.56465C146.201 5.54415 145.946 5.57855 145.707 5.66545C145.468 5.75234 145.251 5.88964 145.072 6.06772C144.892 6.24581 144.754 6.46038 144.668 6.69645C144.581 6.93251 144.548 7.18435 144.571 7.43436V11.7416H143.094V1.4877ZM158.146 9.75019C157.945 10.4242 157.511 11.0073 156.918 11.3974C156.325 11.7874 155.612 11.9596 154.903 11.8839C154.41 11.8967 153.92 11.8037 153.467 11.6112C153.014 11.4187 152.609 11.1314 152.28 10.7692C151.951 10.4071 151.706 9.97869 151.562 9.51385C151.418 9.049 151.378 8.55883 151.446 8.07735C151.38 7.59438 151.421 7.10313 151.564 6.63688C151.708 6.17062 151.952 5.74024 152.279 5.37488C152.606 5.00952 153.009 4.7177 153.461 4.51919C153.913 4.32068 154.402 4.22011 154.897 4.22428C156.979 4.22428 158.235 5.62623 158.235 7.94207V8.44995H152.951V8.53151C152.927 8.80215 152.962 9.07456 153.052 9.33128C153.142 9.588 153.285 9.82337 153.473 10.0223C153.661 10.2212 153.888 10.3793 154.142 10.4864C154.395 10.5935 154.668 10.6473 154.944 10.6443C155.297 10.6861 155.655 10.6234 155.972 10.4642C156.289 10.305 156.551 10.0564 156.724 9.75019H158.146ZM152.951 7.37359H156.731C156.749 7.12608 156.715 6.87747 156.63 6.64373C156.546 6.40999 156.412 6.19629 156.239 6.01637C156.065 5.83645 155.856 5.69428 155.623 5.599C155.391 5.50372 155.14 5.45743 154.888 5.46311C154.633 5.45994 154.38 5.5072 154.143 5.6021C153.906 5.697 153.691 5.83762 153.511 6.01567C153.33 6.19372 153.187 6.4056 153.091 6.63881C152.995 6.87203 152.947 7.12187 152.951 7.37359Z" fill="#252B33"/>
</svg>
