<svg width="13" height="12" viewBox="0 0 13 12" fill="none" xmlns="http://www.w3.org/2000/svg">
<path d="M6.75502 9.8215L6.5 9.67028L6.24498 9.8215L3.63756 11.3676C3.25792 11.5927 2.7941 11.2515 2.89606 10.822L3.58147 7.93551L3.6522 7.63766L3.41907 7.43924L1.15505 5.51233C0.81636 5.22407 0.994369 4.67024 1.43759 4.63329L4.43403 4.38354L4.73283 4.35863L4.8516 4.08332L6.0409 1.32648C6.21458 0.92389 6.78542 0.92389 6.9591 1.32648L8.1484 4.08332L8.26717 4.35863L8.56597 4.38354L11.5624 4.63329C12.0056 4.67024 12.1836 5.22407 11.8449 5.51233L9.58093 7.43924L9.3478 7.63766L9.41853 7.93551L10.1039 10.822C10.2059 11.2515 9.74208 11.5927 9.36244 11.3676L6.75502 9.8215Z" fill="#828282" stroke="#828282"/>
</svg>
